# xmcd CD database file
#
# Track frame offsets:
#	150
#	15085
#	41684
#	73888
#	97131
#	109854
#	131237
#	149795
#	178639
#	203069
#	205152
#	232393
#	254838
#
# Disc length: 3766 seconds
#
# Revision: 0
# Processed by: cddbd v1.5.1PL0 Copyright (c) Steve Scherf et al.
# Submitted via: CDex 1.51
#
DISCID=d20eb40d
DTITLE=Stefon Harris/Jacky Terrasson - Kindred
DYEAR=1900
DGENRE=Jazz
TTITLE0=My Foolish Heart
TTITLE1=Tank's Tune
TTITLE2=Summertime
TTITLE3=Deja
TTITLE4=What Is This Thing Called Love
TTITLE5=Titi Boom
TTITLE6=John's Abbey
TTITLE7=Never Let Me Go
TTITLE8=Rat Entrance
TTITLE9=Rat Race
TTITLE10=Shane
TTITLE11=Little Niles
TTITLE12=Body and Soul
EXTD=
EXTT0=
EXTT1=
EXTT2=
EXTT3=
EXTT4=
EXTT5=
EXTT6=
EXTT7=
EXTT8=
EXTT9=
EXTT10=
EXTT11=
EXTT12=
PLAYORDER=
